<mxfile host="app.diagrams.net" modified="2020-04-01T17:40:01.346Z" agent="5.0 (Windows)" etag="_4x3uel2VkXTiA3nkNo0" version="12.9.5" type="github">
  <diagram id="Rc_XmiZ5ZgW4b_LVRCiT" name="Page-1">
    <mxGraphModel dx="1038" dy="615" grid="1" gridSize="10" guides="1" tooltips="1" connect="1" arrows="1" fold="1" page="1" pageScale="1" pageWidth="850" pageHeight="1100" math="0" shadow="0">
      <root>
        <mxCell id="0" />
        <mxCell id="1" parent="0" />
        <mxCell id="7lfXtU-1fm0I3fZK3Gpo-2" value="" style="rounded=0;whiteSpace=wrap;html=1;fillColor=none;" parent="1" vertex="1">
          <mxGeometry x="30" y="70" width="330" height="260" as="geometry" />
        </mxCell>
        <mxCell id="7lfXtU-1fm0I3fZK3Gpo-3" value="" style="rounded=0;whiteSpace=wrap;html=1;fillColor=none;" parent="1" vertex="1">
          <mxGeometry x="470" y="70" width="330" height="260" as="geometry" />
        </mxCell>
        <mxCell id="7lfXtU-1fm0I3fZK3Gpo-4" value="" style="rounded=0;whiteSpace=wrap;html=1;fillColor=none;" parent="1" vertex="1">
          <mxGeometry x="240" y="440" width="330" height="260" as="geometry" />
        </mxCell>
        <mxCell id="7lfXtU-1fm0I3fZK3Gpo-5" value="Todo Management" style="text;html=1;resizable=0;points=[];autosize=1;align=left;verticalAlign=top;spacingTop=-4;" parent="1" vertex="1">
          <mxGeometry x="134.5" y="43" width="110" height="20" as="geometry" />
        </mxCell>
        <mxCell id="7lfXtU-1fm0I3fZK3Gpo-6" value="Character Management" style="text;html=1;resizable=0;points=[];autosize=1;align=left;verticalAlign=top;spacingTop=-4;" parent="1" vertex="1">
          <mxGeometry x="570" y="43" width="140" height="20" as="geometry" />
        </mxCell>
        <mxCell id="7lfXtU-1fm0I3fZK3Gpo-7" value="User Management" style="text;html=1;resizable=0;points=[];autosize=1;align=left;verticalAlign=top;spacingTop=-4;" parent="1" vertex="1">
          <mxGeometry x="350" y="411" width="110" height="20" as="geometry" />
        </mxCell>
        <mxCell id="7lfXtU-1fm0I3fZK3Gpo-11" value="" style="edgeStyle=orthogonalEdgeStyle;rounded=0;orthogonalLoop=1;jettySize=auto;html=1;" parent="1" source="7lfXtU-1fm0I3fZK3Gpo-8" target="7lfXtU-1fm0I3fZK3Gpo-9" edge="1">
          <mxGeometry relative="1" as="geometry" />
        </mxCell>
        <mxCell id="7lfXtU-1fm0I3fZK3Gpo-8" value="TodoBlock" style="rounded=0;whiteSpace=wrap;html=1;fillColor=none;" parent="1" vertex="1">
          <mxGeometry x="68" y="100" width="110" height="50" as="geometry" />
        </mxCell>
        <mxCell id="7lfXtU-1fm0I3fZK3Gpo-9" value="ToDo" style="rounded=0;whiteSpace=wrap;html=1;fillColor=#ffe6cc;strokeColor=#d79b00;" parent="1" vertex="1">
          <mxGeometry x="230" y="102" width="101" height="46" as="geometry" />
        </mxCell>
        <mxCell id="7lfXtU-1fm0I3fZK3Gpo-12" style="edgeStyle=orthogonalEdgeStyle;rounded=0;orthogonalLoop=1;jettySize=auto;html=1;entryX=0.5;entryY=1;entryDx=0;entryDy=0;" parent="1" source="7lfXtU-1fm0I3fZK3Gpo-10" target="7lfXtU-1fm0I3fZK3Gpo-8" edge="1">
          <mxGeometry relative="1" as="geometry" />
        </mxCell>
        <mxCell id="7lfXtU-1fm0I3fZK3Gpo-10" value="Archive" style="rounded=0;whiteSpace=wrap;html=1;fillColor=none;" parent="1" vertex="1">
          <mxGeometry x="68" y="250" width="110" height="50" as="geometry" />
        </mxCell>
        <mxCell id="7lfXtU-1fm0I3fZK3Gpo-13" value="CalculateExp" style="rounded=0;whiteSpace=wrap;html=1;fillColor=#ffe6cc;strokeColor=#d79b00;" parent="1" vertex="1">
          <mxGeometry x="500" y="102" width="101" height="46" as="geometry" />
        </mxCell>
        <mxCell id="7lfXtU-1fm0I3fZK3Gpo-15" value="CalculateTodoReq" style="rounded=0;whiteSpace=wrap;html=1;fillColor=#d5e8d4;strokeColor=#82b366;" parent="1" vertex="1">
          <mxGeometry x="364" y="100" width="101" height="46" as="geometry" />
        </mxCell>
        <mxCell id="7lfXtU-1fm0I3fZK3Gpo-16" value="Hardness" style="rounded=0;whiteSpace=wrap;html=1;fillColor=none;" parent="1" vertex="1">
          <mxGeometry x="230" y="170" width="101" height="46" as="geometry" />
        </mxCell>
        <mxCell id="7lfXtU-1fm0I3fZK3Gpo-17" value="Scaryness" style="rounded=0;whiteSpace=wrap;html=1;fillColor=none;" parent="1" vertex="1">
          <mxGeometry x="230" y="240" width="101" height="46" as="geometry" />
        </mxCell>
        <mxCell id="7lfXtU-1fm0I3fZK3Gpo-21" style="edgeStyle=orthogonalEdgeStyle;rounded=0;orthogonalLoop=1;jettySize=auto;html=1;exitX=0.5;exitY=1;exitDx=0;exitDy=0;entryX=0.001;entryY=0.638;entryDx=0;entryDy=0;entryPerimeter=0;" parent="1" source="7lfXtU-1fm0I3fZK3Gpo-9" target="7lfXtU-1fm0I3fZK3Gpo-16" edge="1">
          <mxGeometry relative="1" as="geometry">
            <Array as="points">
              <mxPoint x="280" y="160" />
              <mxPoint x="210" y="160" />
              <mxPoint x="210" y="199" />
            </Array>
          </mxGeometry>
        </mxCell>
        <mxCell id="7lfXtU-1fm0I3fZK3Gpo-22" style="edgeStyle=orthogonalEdgeStyle;rounded=0;orthogonalLoop=1;jettySize=auto;html=1;exitX=0.5;exitY=1;exitDx=0;exitDy=0;entryX=0.001;entryY=0.354;entryDx=0;entryDy=0;entryPerimeter=0;" parent="1" target="7lfXtU-1fm0I3fZK3Gpo-17" edge="1">
          <mxGeometry relative="1" as="geometry">
            <mxPoint x="274.8888888888889" y="147.94444444444446" as="sourcePoint" />
            <mxPoint x="224.6111111111111" y="199.33333333333331" as="targetPoint" />
            <Array as="points">
              <mxPoint x="275" y="150" />
              <mxPoint x="205" y="150" />
              <mxPoint x="205" y="256" />
            </Array>
          </mxGeometry>
        </mxCell>
        <mxCell id="7lfXtU-1fm0I3fZK3Gpo-24" value="" style="endArrow=classic;html=1;exitX=1.009;exitY=0.405;exitDx=0;exitDy=0;exitPerimeter=0;fillColor=#f8cecc;strokeColor=#b85450;" parent="1" source="7lfXtU-1fm0I3fZK3Gpo-9" edge="1">
          <mxGeometry width="50" height="50" relative="1" as="geometry">
            <mxPoint x="340" y="210" as="sourcePoint" />
            <mxPoint x="363" y="121" as="targetPoint" />
            <Array as="points">
              <mxPoint x="350" y="121" />
            </Array>
          </mxGeometry>
        </mxCell>
        <mxCell id="7lfXtU-1fm0I3fZK3Gpo-26" value="" style="endArrow=classic;html=1;exitX=1;exitY=0.5;exitDx=0;exitDy=0;entryX=0;entryY=0.5;entryDx=0;entryDy=0;fillColor=#f8cecc;strokeColor=#b85450;" parent="1" source="7lfXtU-1fm0I3fZK3Gpo-15" target="7lfXtU-1fm0I3fZK3Gpo-13" edge="1">
          <mxGeometry width="50" height="50" relative="1" as="geometry">
            <mxPoint x="460" y="160" as="sourcePoint" />
            <mxPoint x="510" y="110" as="targetPoint" />
          </mxGeometry>
        </mxCell>
        <mxCell id="7lfXtU-1fm0I3fZK3Gpo-27" value="UpdateUserData" style="rounded=0;whiteSpace=wrap;html=1;fillColor=#ffe6cc;strokeColor=#d79b00;" parent="1" vertex="1">
          <mxGeometry x="263" y="460" width="101" height="46" as="geometry" />
        </mxCell>
        <mxCell id="g4744lY3ipZy2g39p095-1" value="Character" style="rounded=0;whiteSpace=wrap;html=1;fillColor=none;" parent="1" vertex="1">
          <mxGeometry x="690" y="102" width="101" height="46" as="geometry" />
        </mxCell>
        <mxCell id="g4744lY3ipZy2g39p095-3" value="" style="endArrow=classic;html=1;exitX=1;exitY=0.5;exitDx=0;exitDy=0;fillColor=#f8cecc;strokeColor=#b85450;entryX=0;entryY=0.5;entryDx=0;entryDy=0;" parent="1" source="7lfXtU-1fm0I3fZK3Gpo-13" edge="1" target="g4744lY3ipZy2g39p095-1">
          <mxGeometry width="50" height="50" relative="1" as="geometry">
            <mxPoint x="650" y="160" as="sourcePoint" />
            <mxPoint x="695" y="175" as="targetPoint" />
          </mxGeometry>
        </mxCell>
        <mxCell id="w8I04xJtoM3QzNeEQiqz-1" value="Add exp" style="text;html=1;align=center;verticalAlign=middle;resizable=0;points=[];labelBackgroundColor=#ffffff;" vertex="1" connectable="0" parent="g4744lY3ipZy2g39p095-3">
          <mxGeometry x="-0.3483" y="-1" relative="1" as="geometry">
            <mxPoint x="10" as="offset" />
          </mxGeometry>
        </mxCell>
        <mxCell id="45NlDj1UToxuAQEzQDJD-2" value="CalculateTodoReq" style="swimlane;fontStyle=1;align=center;verticalAlign=top;childLayout=stackLayout;horizontal=1;startSize=26;horizontalStack=0;resizeParent=1;resizeParentMax=0;resizeLast=0;collapsible=1;marginBottom=0;" parent="1" vertex="1">
          <mxGeometry x="615" y="411" width="205" height="114" as="geometry" />
        </mxCell>
        <mxCell id="45NlDj1UToxuAQEzQDJD-3" value="- userId : Long&#xa;- todo : Todo" style="text;strokeColor=none;fillColor=none;align=left;verticalAlign=top;spacingLeft=4;spacingRight=4;overflow=hidden;rotatable=0;points=[[0,0.5],[1,0.5]];portConstraint=eastwest;" parent="45NlDj1UToxuAQEzQDJD-2" vertex="1">
          <mxGeometry y="26" width="205" height="54" as="geometry" />
        </mxCell>
        <mxCell id="45NlDj1UToxuAQEzQDJD-4" value="" style="line;strokeWidth=1;fillColor=none;align=left;verticalAlign=middle;spacingTop=-1;spacingLeft=3;spacingRight=3;rotatable=0;labelPosition=right;points=[];portConstraint=eastwest;" parent="45NlDj1UToxuAQEzQDJD-2" vertex="1">
          <mxGeometry y="80" width="205" height="8" as="geometry" />
        </mxCell>
        <mxCell id="45NlDj1UToxuAQEzQDJD-5" value="+ method(type): type" style="text;strokeColor=none;fillColor=none;align=left;verticalAlign=top;spacingLeft=4;spacingRight=4;overflow=hidden;rotatable=0;points=[[0,0.5],[1,0.5]];portConstraint=eastwest;" parent="45NlDj1UToxuAQEzQDJD-2" vertex="1">
          <mxGeometry y="88" width="205" height="26" as="geometry" />
        </mxCell>
        <mxCell id="45NlDj1UToxuAQEzQDJD-6" value="UserDataSet" style="swimlane;fontStyle=1;align=center;verticalAlign=top;childLayout=stackLayout;horizontal=1;startSize=26;horizontalStack=0;resizeParent=1;resizeParentMax=0;resizeLast=0;collapsible=1;marginBottom=0;" parent="1" vertex="1">
          <mxGeometry x="616" y="550" width="205" height="104" as="geometry" />
        </mxCell>
        <mxCell id="45NlDj1UToxuAQEzQDJD-7" value="- user : User" style="text;strokeColor=none;fillColor=none;align=left;verticalAlign=top;spacingLeft=4;spacingRight=4;overflow=hidden;rotatable=0;points=[[0,0.5],[1,0.5]];portConstraint=eastwest;" parent="45NlDj1UToxuAQEzQDJD-6" vertex="1">
          <mxGeometry y="26" width="205" height="44" as="geometry" />
        </mxCell>
        <mxCell id="45NlDj1UToxuAQEzQDJD-8" value="" style="line;strokeWidth=1;fillColor=none;align=left;verticalAlign=middle;spacingTop=-1;spacingLeft=3;spacingRight=3;rotatable=0;labelPosition=right;points=[];portConstraint=eastwest;" parent="45NlDj1UToxuAQEzQDJD-6" vertex="1">
          <mxGeometry y="70" width="205" height="8" as="geometry" />
        </mxCell>
        <mxCell id="45NlDj1UToxuAQEzQDJD-9" value="+ method(type): type" style="text;strokeColor=none;fillColor=none;align=left;verticalAlign=top;spacingLeft=4;spacingRight=4;overflow=hidden;rotatable=0;points=[[0,0.5],[1,0.5]];portConstraint=eastwest;" parent="45NlDj1UToxuAQEzQDJD-6" vertex="1">
          <mxGeometry y="78" width="205" height="26" as="geometry" />
        </mxCell>
      </root>
    </mxGraphModel>
  </diagram>
</mxfile>
